<?xml version="1.0" standalone="no"?>
<!DOCTYPE svg PUBLIC "-//W3C//DTD SVG 20010904//EN"
 "http://www.w3.org/TR/2001/REC-SVG-20010904/DTD/svg10.dtd">
<svg version="1.0" xmlns="http://www.w3.org/2000/svg"
 width="1280.000000pt" height="1280.000000pt" viewBox="0 0 1280.000000 1280.000000"
 preserveAspectRatio="xMidYMid meet">
<g transform="translate(0.000000,1280.000000) scale(0.100000,-0.100000)"
fill="#000000" stroke="none">
<path d="M2490 12791 c-25 -5 -85 -14 -135 -21 -118 -16 -217 -49 -342 -115
-217 -115 -416 -267 -635 -487 -81 -81 -152 -156 -158 -168 -10 -19 114 -146
1561 -1588 864 -862 1575 -1568 1580 -1570 16 -7 136 84 227 172 184 178 290
379 344 650 29 145 31 414 4 586 -59 387 -216 824 -463 1285 -163 303 -280
470 -463 658 -331 342 -684 520 -1165 587 -108 15 -300 21 -355 11z"/>
<path d="M872 11530 c-45 -71 -85 -137 -89 -146 -4 -12 378 -400 1503 -1525
830 -830 1513 -1509 1518 -1509 8 0 235 231 236 240 0 10 -3065 3070 -3075
3070 -6 0 -47 -58 -93 -130z"/>
<path d="M647 11139 c-32 -48 -167 -350 -240 -534 -185 -468 -338 -1019 -376
-1350 -5 -49 -15 -135 -22 -191 -26 -220 20 -676 107 -1069 234 -1052 878
-2300 1867 -3620 383 -510 901 -1127 1117 -1330 201 -189 568 -502 860 -736
1387 -1108 2721 -1852 3852 -2148 277 -73 477 -108 795 -141 223 -22 339 -25
459 -10 43 5 124 14 179 20 333 36 936 205 1400 393 193 78 461 201 495 227
l25 19 -1500 1501 c-825 825 -1503 1500 -1506 1500 -4 0 -42 -21 -84 -47 -563
-338 -1223 -250 -1889 251 -743 560 -2108 1965 -2458 2532 -371 600 -402 1160
-94 1690 l35 60 -1503 1503 c-1498 1498 -1504 1504 -1519 1480z"/>
<path d="M9674 4931 c-253 -45 -456 -146 -632 -315 -84 -80 -202 -226 -202
-249 0 -19 3133 -3147 3152 -3147 9 0 86 69 171 153 224 223 375 420 492 640
83 157 95 198 135 478 28 190 -25 551 -117 799 -156 422 -482 795 -928 1061
-514 308 -1081 525 -1525 585 -147 19 -419 17 -546 -5z"/>
<path d="M8461 3923 l-115 -114 1516 -1516 1516 -1516 38 23 c22 13 88 55 147
94 l109 69 -1539 1539 c-846 846 -1542 1537 -1548 1536 -5 -1 -62 -53 -124
-115z"/>
</g>
</svg>
